<svg width="163" height="147" viewBox="0 0 163 147" fill="none" xmlns="http://www.w3.org/2000/svg">
<path d="M65.8369 146.792H1.08494V77.024C0.780939 66.992 2.14894 57.568 5.18894 48.752C8.53294 39.936 13.0929 32.184 18.8689 25.496C24.6449 18.808 31.4849 13.336 39.3889 9.07998C47.5969 4.51998 56.4129 1.63198 65.8369 0.415979V30.512C54.2849 34.464 46.3809 40.392 42.1249 48.296C37.8689 55.896 35.7409 65.32 35.7409 76.568H65.8369V146.792ZM162.965 146.792H98.2129V77.024C97.9089 66.992 99.2769 57.568 102.317 48.752C105.661 39.936 110.221 32.184 115.997 25.496C121.773 18.808 128.613 13.336 136.517 9.07998C144.725 4.51998 153.541 1.63198 162.965 0.415979V30.512C151.413 34.464 143.509 40.392 139.253 48.296C134.997 55.896 132.869 65.32 132.869 76.568H162.965V146.792Z" fill="#EFEFEF"/>
</svg>
